<?xml version="1.0" encoding="utf-8"?>
<!-- Generator: Adobe Illustrator 25.2.0, SVG Export Plug-In . SVG Version: 6.00 Build 0)  -->
<svg version="1.1" id="Capa_1" xmlns="http://www.w3.org/2000/svg" xmlns:xlink="http://www.w3.org/1999/xlink" x="0px" y="0px"
	 viewBox="0 0 261 79" style="enable-background:new 0 0 261 79;" xml:space="preserve">
<style type="text/css">
	.st0{fill:#9C9B9B;}
	.st1{fill:url(#SVGID_1_);}
	.st2{fill:url(#SVGID_2_);}
	.st3{fill:url(#SVGID_3_);}
	.st4{fill:url(#SVGID_4_);}
	.st5{fill:url(#SVGID_5_);}
	.st6{fill:url(#SVGID_6_);}
	.st7{fill:url(#SVGID_7_);}
</style>
<g>
	<g>
		<g>
			<path class="st0" d="M42.33,39.77c-1.5-0.9-3.43-1.86-5.8-2.87c-1.57-0.61-2.79-1.15-3.67-1.62s-1.61-1.07-2.18-1.79
				c-0.58-0.73-0.86-1.63-0.86-2.71c0-0.94,0.42-1.75,1.27-2.44s2.36-1.04,4.54-1.04c1.27,0,2.34,0.11,3.22,0.33
				s1.75,0.51,2.62,0.86c0.54,0.23,0.91,0.35,1.12,0.35c0.47,0,0.97-0.33,1.51-0.98c0.54-0.66,0.99-1.42,1.35-2.3
				c0.36-0.88,0.54-1.6,0.54-2.16c0-0.68-0.49-1.36-1.46-2.04c-0.97-0.68-2.32-1.24-4.03-1.67c-1.71-0.43-3.62-0.65-5.73-0.65
				c-2.58,0-4.99,0.45-7.24,1.34s-4.08,2.29-5.48,4.18s-2.11,4.28-2.11,7.14c0,2.34,0.38,4.32,1.14,5.94
				c0.76,1.62,1.75,2.92,2.95,3.9c1.21,0.98,2.65,1.89,4.34,2.71l2.78,1.2c1.57,0.63,2.81,1.18,3.73,1.65s1.66,1.04,2.25,1.72
				C37.71,49.5,38,50.31,38,51.25c0,1.62-0.57,2.75-1.71,3.39c-1.14,0.64-2.53,0.97-4.17,0.97c-1.48,0-2.78-0.2-3.92-0.6
				c-1.14-0.4-2.34-0.93-3.6-1.58c-0.84-0.45-1.39-0.67-1.65-0.67c-0.42,0-0.95,0.32-1.58,0.97s-1.18,1.41-1.63,2.3
				s-0.69,1.64-0.69,2.25c0,0.77,0.59,1.59,1.78,2.46c1.18,0.87,2.89,1.6,5.13,2.2c2.24,0.6,4.83,0.9,7.79,0.9
				c2.46,0,4.75-0.46,6.87-1.37c2.12-0.91,3.85-2.4,5.2-4.45c1.35-2.05,2.02-4.68,2.02-7.89c0-2.62-0.54-4.78-1.63-6.47
				S43.83,40.67,42.33,39.77z"/>
			<path class="st0" d="M80.66,22.09c-2.99-1.68-6.63-2.51-10.92-2.51H55.76c-0.87,0-1.5,0.19-1.9,0.58c-0.4,0.39-0.6,1.01-0.6,1.88
				v38.78c0,0.87,0.2,1.5,0.6,1.9c0.4,0.4,1.03,0.6,1.9,0.6h13.99c4.29,0,7.93-0.84,10.92-2.53s5.25-4.16,6.79-7.42
				c1.53-3.26,2.3-7.24,2.3-11.95c0-4.69-0.77-8.66-2.3-11.92C85.91,26.23,83.65,23.76,80.66,22.09z M77.31,51.62
				c-1.71,2.33-4.23,3.5-7.56,3.5h-6.79V27.73h6.79c3.33,0,5.85,1.17,7.56,3.5c1.71,2.33,2.57,5.72,2.57,10.18
				C79.87,45.88,79.02,49.29,77.31,51.62z"/>
			<path class="st0" d="M125.77,20.31c-0.29-0.49-0.77-0.74-1.42-0.74H94.78c-0.66,0-1.13,0.25-1.42,0.74
				c-0.29,0.49-0.44,1.29-0.44,2.39v1.9c0,1.1,0.15,1.9,0.44,2.39c0.29,0.49,0.77,0.74,1.42,0.74h9.91v33.71
				c0,1.31,1.25,1.97,3.76,1.97h2.18c2.51,0,3.76-0.66,3.76-1.97V27.73h9.95c0.66,0,1.13-0.25,1.42-0.74
				c0.29-0.49,0.44-1.29,0.44-2.39v-1.9C126.21,21.6,126.06,20.8,125.77,20.31z"/>
		</g>
		<g>
			<path class="st0" d="M134.52,58.35c-3.34-3.66-5.01-9.34-5.01-17.05c0-14.84,6.96-22.25,20.88-22.25c1.9,0,3.87,0.19,5.91,0.56
				s3.74,0.9,5.12,1.56s2.06,1.41,2.06,2.23c0,0.59-0.23,1.35-0.7,2.3s-1.03,1.79-1.67,2.51s-1.21,1.09-1.71,1.09
				c-0.12,0-0.43-0.12-0.95-0.35c-1.12-0.47-2.3-0.86-3.53-1.18s-2.79-0.47-4.69-0.47c-3.68,0-6.4,1.17-8.17,3.5
				c-1.77,2.33-2.65,5.85-2.65,10.56s0.89,8.26,2.67,10.65c1.78,2.39,4.45,3.59,8.02,3.59c1.85,0,3.46-0.19,4.83-0.56
				s2.71-0.86,4.03-1.44c0.07-0.02,0.28-0.11,0.63-0.26s0.61-0.23,0.77-0.23c0.61,0,1.2,0.36,1.76,1.07s1.02,1.52,1.37,2.43
				s0.53,1.55,0.53,1.95c0,1.15-0.77,2.12-2.3,2.92s-3.39,1.39-5.55,1.78s-4.19,0.58-6.06,0.58
				C143.05,63.84,137.86,62.01,134.52,58.35z"/>
			<path class="st0" d="M170.52,60.21c-1.45-1.56-2.18-3.93-2.18-7.12V20.06c0-1.27,1.17-1.9,3.5-1.9h1.64
				c1.2,0,2.08,0.16,2.64,0.47c0.56,0.32,0.83,0.79,0.83,1.42v33.13c0,0.89,0.16,1.54,0.49,1.93c0.33,0.39,0.87,0.59,1.64,0.59
				c0.2,0,0.49-0.04,0.88-0.13c0.11-0.02,0.22-0.04,0.33-0.07c0.11-0.02,0.23-0.03,0.36-0.03c0.33,0,0.63,0.29,0.9,0.87
				c0.27,0.58,0.49,1.22,0.64,1.93c0.15,0.71,0.23,1.17,0.23,1.39c0,1.92-1.85,2.88-5.56,2.88
				C174.09,62.55,171.97,61.77,170.52,60.21z"/>
			<path class="st0" d="M186.27,26.15c-0.56-0.31-0.83-0.77-0.83-1.41v-4.68c0-0.63,0.28-1.11,0.85-1.42
				c0.57-0.32,1.45-0.47,2.65-0.47h1.6c1.2,0,2.08,0.16,2.65,0.47c0.57,0.32,0.85,0.79,0.85,1.42v4.68c0,0.63-0.28,1.1-0.83,1.41
				c-0.56,0.31-1.45,0.46-2.67,0.46h-1.6C187.71,26.61,186.82,26.46,186.27,26.15z M185.43,60.33V33.35c0-0.61,0.28-1.07,0.85-1.37
				c0.57-0.31,1.45-0.46,2.65-0.46h1.6c1.2,0,2.08,0.15,2.65,0.46c0.57,0.31,0.85,0.76,0.85,1.37v26.97c0,1.22-1.17,1.83-3.5,1.83
				h-1.6C186.6,62.16,185.43,61.55,185.43,60.33z"/>
			<path class="st0" d="M240.87,33.45c1.39,1.53,2.08,3.9,2.08,7.1v19.77c0,1.22-1.18,1.83-3.54,1.83h-1.6
				c-2.31,0-3.47-0.61-3.47-1.83V41.86c0-1.18-0.27-2.07-0.8-2.68c-0.53-0.61-1.42-0.92-2.67-0.92c-1.09,0-2.01,0.33-2.77,1
				c-0.75,0.67-1.36,1.43-1.82,2.31v18.76c0,1.22-1.17,1.83-3.5,1.83h-1.64c-2.31,0-3.47-0.61-3.47-1.83V41.86
				c0-1.18-0.27-2.07-0.8-2.68c-0.53-0.61-1.41-0.92-2.64-0.92c-1.05,0-1.97,0.35-2.77,1.05c-0.8,0.7-1.4,1.47-1.82,2.32v18.69
				c0,1.22-1.18,1.83-3.54,1.83h-1.6c-2.31,0-3.47-0.61-3.47-1.83V41.86c0-2.79-0.19-5.12-0.56-6.97c-0.11-0.59-0.16-1-0.16-1.24
				c0-0.44,0.41-0.79,1.23-1.06c0.82-0.27,1.75-0.47,2.78-0.61c1.04-0.13,1.87-0.2,2.5-0.2c0.68,0,1.15,0.25,1.42,0.75
				c0.27,0.5,0.52,1.23,0.74,2.19l0.2,0.85c0.92-1.24,2.14-2.29,3.67-3.14c1.53-0.85,3.18-1.28,4.94-1.28
				c2.01,0,3.64,0.36,4.89,1.08c1.25,0.72,2.18,1.83,2.77,3.34c0.98-1.24,2.27-2.29,3.86-3.14c1.59-0.85,3.3-1.28,5.11-1.28
				C237.34,31.16,239.48,31.92,240.87,33.45z"/>
		</g>
	</g>
	<g>
		<g>
			<linearGradient id="SVGID_1_" gradientUnits="userSpaceOnUse" x1="32.4492" y1="62.8359" x2="32.4492" y2="18.0469">
				<stop  offset="0" style="stop-color:#BCF8EC"/>
				<stop  offset="0.0274" style="stop-color:#A3E3EB"/>
				<stop  offset="0.0678" style="stop-color:#84CAEA"/>
				<stop  offset="0.1074" style="stop-color:#6FB8EA"/>
				<stop  offset="0.1454" style="stop-color:#61ADE9"/>
				<stop  offset="0.1801" style="stop-color:#5DA9E9"/>
				<stop  offset="0.3582" style="stop-color:#4780BA"/>
				<stop  offset="0.567" style="stop-color:#30558A"/>
				<stop  offset="0.7512" style="stop-color:#1F3767"/>
				<stop  offset="0.9018" style="stop-color:#152452"/>
				<stop  offset="1" style="stop-color:#111D4A"/>
			</linearGradient>
			<path class="st1" d="M41.33,38.77c-1.5-0.9-3.43-1.86-5.8-2.87c-1.57-0.61-2.79-1.15-3.67-1.62s-1.61-1.07-2.18-1.79
				c-0.58-0.73-0.86-1.63-0.86-2.71c0-0.94,0.42-1.75,1.27-2.44s2.36-1.04,4.54-1.04c1.27,0,2.34,0.11,3.22,0.33
				s1.75,0.51,2.62,0.86c0.54,0.23,0.91,0.35,1.12,0.35c0.47,0,0.97-0.33,1.51-0.98c0.54-0.66,0.99-1.42,1.35-2.3
				c0.36-0.88,0.54-1.6,0.54-2.16c0-0.68-0.49-1.36-1.46-2.04c-0.97-0.68-2.32-1.24-4.03-1.67c-1.71-0.43-3.62-0.65-5.73-0.65
				c-2.58,0-4.99,0.45-7.24,1.34s-4.08,2.29-5.48,4.18s-2.11,4.28-2.11,7.14c0,2.34,0.38,4.32,1.14,5.94
				c0.76,1.62,1.75,2.92,2.95,3.9c1.21,0.98,2.65,1.89,4.34,2.71l2.78,1.2c1.57,0.63,2.81,1.18,3.73,1.65s1.66,1.04,2.25,1.72
				C36.71,48.5,37,49.31,37,50.25c0,1.62-0.57,2.75-1.71,3.39c-1.14,0.64-2.53,0.97-4.17,0.97c-1.48,0-2.78-0.2-3.92-0.6
				c-1.14-0.4-2.34-0.93-3.6-1.58c-0.84-0.45-1.39-0.67-1.65-0.67c-0.42,0-0.95,0.32-1.58,0.97s-1.18,1.41-1.63,2.3
				s-0.69,1.64-0.69,2.25c0,0.77,0.59,1.59,1.78,2.46c1.18,0.87,2.89,1.6,5.13,2.2c2.24,0.6,4.83,0.9,7.79,0.9
				c2.46,0,4.75-0.46,6.87-1.37c2.12-0.91,3.85-2.4,5.2-4.45c1.35-2.05,2.02-4.68,2.02-7.89c0-2.62-0.54-4.78-1.63-6.47
				S42.83,39.67,41.33,38.77z"/>
			<linearGradient id="SVGID_2_" gradientUnits="userSpaceOnUse" x1="70.5059" y1="62.3086" x2="70.5059" y2="18.5742">
				<stop  offset="0" style="stop-color:#BCF8EC"/>
				<stop  offset="0.0274" style="stop-color:#A3E3EB"/>
				<stop  offset="0.0678" style="stop-color:#84CAEA"/>
				<stop  offset="0.1074" style="stop-color:#6FB8EA"/>
				<stop  offset="0.1454" style="stop-color:#61ADE9"/>
				<stop  offset="0.1801" style="stop-color:#5DA9E9"/>
				<stop  offset="0.3582" style="stop-color:#4780BA"/>
				<stop  offset="0.567" style="stop-color:#30558A"/>
				<stop  offset="0.7512" style="stop-color:#1F3767"/>
				<stop  offset="0.9018" style="stop-color:#152452"/>
				<stop  offset="1" style="stop-color:#111D4A"/>
			</linearGradient>
			<path class="st2" d="M79.66,21.09c-2.99-1.68-6.63-2.51-10.92-2.51H54.76c-0.87,0-1.5,0.19-1.9,0.58c-0.4,0.39-0.6,1.01-0.6,1.88
				v38.78c0,0.87,0.2,1.5,0.6,1.9c0.4,0.4,1.03,0.6,1.9,0.6h13.99c4.29,0,7.93-0.84,10.92-2.53s5.25-4.16,6.79-7.42
				c1.53-3.26,2.3-7.24,2.3-11.95c0-4.69-0.77-8.66-2.3-11.92C84.91,25.23,82.65,22.76,79.66,21.09z M76.31,50.62
				c-1.71,2.33-4.23,3.5-7.56,3.5h-6.79V26.73h6.79c3.33,0,5.85,1.17,7.56,3.5c1.71,2.33,2.57,5.72,2.57,10.18
				C78.87,44.88,78.02,48.29,76.31,50.62z"/>
			<linearGradient id="SVGID_3_" gradientUnits="userSpaceOnUse" x1="108.5625" y1="62.4141" x2="108.5625" y2="18.5742">
				<stop  offset="0" style="stop-color:#BCF8EC"/>
				<stop  offset="0.0274" style="stop-color:#A3E3EB"/>
				<stop  offset="0.0678" style="stop-color:#84CAEA"/>
				<stop  offset="0.1074" style="stop-color:#6FB8EA"/>
				<stop  offset="0.1454" style="stop-color:#61ADE9"/>
				<stop  offset="0.1801" style="stop-color:#5DA9E9"/>
				<stop  offset="0.3582" style="stop-color:#4780BA"/>
				<stop  offset="0.567" style="stop-color:#30558A"/>
				<stop  offset="0.7512" style="stop-color:#1F3767"/>
				<stop  offset="0.9018" style="stop-color:#152452"/>
				<stop  offset="1" style="stop-color:#111D4A"/>
			</linearGradient>
			<path class="st3" d="M124.77,19.31c-0.29-0.49-0.77-0.74-1.42-0.74H93.78c-0.66,0-1.13,0.25-1.42,0.74
				c-0.29,0.49-0.44,1.29-0.44,2.39v1.9c0,1.1,0.15,1.9,0.44,2.39c0.29,0.49,0.77,0.74,1.42,0.74h9.91v33.71
				c0,1.31,1.25,1.97,3.76,1.97h2.18c2.51,0,3.76-0.66,3.76-1.97V26.73h9.95c0.66,0,1.13-0.25,1.42-0.74
				c0.29-0.49,0.44-1.29,0.44-2.39v-1.9C125.21,20.6,125.06,19.8,124.77,19.31z"/>
		</g>
		<g>
			<linearGradient id="SVGID_4_" gradientUnits="userSpaceOnUse" x1="145.7578" y1="62.8359" x2="145.7578" y2="18.0469">
				<stop  offset="0" style="stop-color:#EDAE49"/>
				<stop  offset="0.162" style="stop-color:#EB5E55"/>
				<stop  offset="0.22" style="stop-color:#E2514F"/>
				<stop  offset="0.3332" style="stop-color:#D53F47"/>
				<stop  offset="0.4674" style="stop-color:#CC3241"/>
				<stop  offset="0.6414" style="stop-color:#C72A3E"/>
				<stop  offset="1" style="stop-color:#C5283D"/>
			</linearGradient>
			<path class="st4" d="M133.52,57.35c-3.34-3.66-5.01-9.34-5.01-17.05c0-14.84,6.96-22.25,20.88-22.25c1.9,0,3.87,0.19,5.91,0.56
				s3.74,0.9,5.12,1.56s2.06,1.41,2.06,2.23c0,0.59-0.23,1.35-0.7,2.3s-1.03,1.79-1.67,2.51s-1.21,1.09-1.71,1.09
				c-0.12,0-0.43-0.12-0.95-0.35c-1.12-0.47-2.3-0.86-3.53-1.18s-2.79-0.47-4.69-0.47c-3.68,0-6.4,1.17-8.17,3.5
				c-1.77,2.33-2.65,5.85-2.65,10.56s0.89,8.26,2.67,10.65c1.78,2.39,4.45,3.59,8.02,3.59c1.85,0,3.46-0.19,4.83-0.56
				s2.71-0.86,4.03-1.44c0.07-0.02,0.28-0.11,0.63-0.26s0.61-0.23,0.77-0.23c0.61,0,1.2,0.36,1.76,1.07s1.02,1.52,1.37,2.43
				s0.53,1.55,0.53,1.95c0,1.15-0.77,2.12-2.3,2.92s-3.39,1.39-5.55,1.78s-4.19,0.58-6.06,0.58
				C142.05,62.84,136.86,61.01,133.52,57.35z"/>
			<linearGradient id="SVGID_5_" gradientUnits="userSpaceOnUse" x1="174.3836" y1="61.5518" x2="174.3836" y2="17.1641">
				<stop  offset="0" style="stop-color:#EDAE49"/>
				<stop  offset="0.162" style="stop-color:#EB5E55"/>
				<stop  offset="0.22" style="stop-color:#E2514F"/>
				<stop  offset="0.3332" style="stop-color:#D53F47"/>
				<stop  offset="0.4674" style="stop-color:#CC3241"/>
				<stop  offset="0.6414" style="stop-color:#C72A3E"/>
				<stop  offset="1" style="stop-color:#C5283D"/>
			</linearGradient>
			<path class="st5" d="M169.52,59.21c-1.45-1.56-2.18-3.93-2.18-7.12V19.06c0-1.27,1.17-1.9,3.5-1.9h1.64
				c1.2,0,2.08,0.16,2.64,0.47c0.56,0.32,0.83,0.79,0.83,1.42v33.13c0,0.89,0.16,1.54,0.49,1.93c0.33,0.39,0.87,0.59,1.64,0.59
				c0.2,0,0.49-0.04,0.88-0.13c0.11-0.02,0.22-0.04,0.33-0.07c0.11-0.02,0.23-0.03,0.36-0.03c0.33,0,0.63,0.29,0.9,0.87
				c0.27,0.58,0.49,1.22,0.64,1.93c0.15,0.71,0.23,1.17,0.23,1.39c0,1.92-1.85,2.88-5.56,2.88
				C173.09,61.55,170.97,60.77,169.52,59.21z"/>
			<linearGradient id="SVGID_6_" gradientUnits="userSpaceOnUse" x1="188.7376" y1="61.159" x2="188.7376" y2="17.1641">
				<stop  offset="0" style="stop-color:#EDAE49"/>
				<stop  offset="0.162" style="stop-color:#EB5E55"/>
				<stop  offset="0.22" style="stop-color:#E2514F"/>
				<stop  offset="0.3332" style="stop-color:#D53F47"/>
				<stop  offset="0.4674" style="stop-color:#CC3241"/>
				<stop  offset="0.6414" style="stop-color:#C72A3E"/>
				<stop  offset="1" style="stop-color:#C5283D"/>
			</linearGradient>
			<path class="st6" d="M185.27,25.15c-0.56-0.31-0.83-0.77-0.83-1.41v-4.68c0-0.63,0.28-1.11,0.85-1.42
				c0.57-0.32,1.45-0.47,2.65-0.47h1.6c1.2,0,2.08,0.16,2.65,0.47c0.57,0.32,0.85,0.79,0.85,1.42v4.68c0,0.63-0.28,1.1-0.83,1.41
				c-0.56,0.31-1.45,0.46-2.67,0.46h-1.6C186.71,25.61,185.82,25.46,185.27,25.15z M184.43,59.33V32.35c0-0.61,0.28-1.07,0.85-1.37
				c0.57-0.31,1.45-0.46,2.65-0.46h1.6c1.2,0,2.08,0.15,2.65,0.46c0.57,0.31,0.85,0.76,0.85,1.37v26.97c0,1.22-1.17,1.83-3.5,1.83
				h-1.6C185.6,61.16,184.43,60.55,184.43,59.33z"/>
			<linearGradient id="SVGID_7_" gradientUnits="userSpaceOnUse" x1="220.6372" y1="61.159" x2="220.6372" y2="30.1596">
				<stop  offset="0" style="stop-color:#EDAE49"/>
				<stop  offset="0.162" style="stop-color:#EB5E55"/>
				<stop  offset="0.22" style="stop-color:#E2514F"/>
				<stop  offset="0.3332" style="stop-color:#D53F47"/>
				<stop  offset="0.4674" style="stop-color:#CC3241"/>
				<stop  offset="0.6414" style="stop-color:#C72A3E"/>
				<stop  offset="1" style="stop-color:#C5283D"/>
			</linearGradient>
			<path class="st7" d="M239.87,32.45c1.39,1.53,2.08,3.9,2.08,7.1v19.77c0,1.22-1.18,1.83-3.54,1.83h-1.6
				c-2.31,0-3.47-0.61-3.47-1.83V40.86c0-1.18-0.27-2.07-0.8-2.68c-0.53-0.61-1.42-0.92-2.67-0.92c-1.09,0-2.01,0.33-2.77,1
				c-0.75,0.67-1.36,1.43-1.82,2.31v18.76c0,1.22-1.17,1.83-3.5,1.83h-1.64c-2.31,0-3.47-0.61-3.47-1.83V40.86
				c0-1.18-0.27-2.07-0.8-2.68c-0.53-0.61-1.41-0.92-2.64-0.92c-1.05,0-1.97,0.35-2.77,1.05c-0.8,0.7-1.4,1.47-1.82,2.32v18.69
				c0,1.22-1.18,1.83-3.54,1.83h-1.6c-2.31,0-3.47-0.61-3.47-1.83V40.86c0-2.79-0.19-5.12-0.56-6.97c-0.11-0.59-0.16-1-0.16-1.24
				c0-0.44,0.41-0.79,1.23-1.06c0.82-0.27,1.75-0.47,2.78-0.61s1.87-0.2,2.5-0.2c0.68,0,1.15,0.25,1.42,0.75
				c0.27,0.5,0.52,1.23,0.74,2.19l0.2,0.85c0.92-1.24,2.14-2.29,3.67-3.14c1.53-0.85,3.18-1.28,4.94-1.28
				c2.01,0,3.64,0.36,4.89,1.08c1.25,0.72,2.18,1.83,2.77,3.34c0.98-1.24,2.27-2.29,3.86-3.14c1.59-0.85,3.3-1.28,5.11-1.28
				C236.34,30.16,238.48,30.92,239.87,32.45z"/>
		</g>
	</g>
</g>
</svg>
